<svg xmlns="http://www.w3.org/2000/svg" width="44.133" height="40.563" viewBox="0 0 44.133 40.563">
  <path id="android_dialer_FILL0_wght400_GRAD0_opsz48" d="M37.65,41.95a35.161,35.161,0,0,1-12.675-2.325,34.992,34.992,0,0,1-10.75-6.45,31.405,31.405,0,0,1-7.45-9.75A27.252,27.252,0,0,1,4,11.2,5.658,5.658,0,0,1,5.225,7.5,4.232,4.232,0,0,1,8.7,6h4.65a2.786,2.786,0,0,1,2.1.775A4.411,4.411,0,0,1,16.5,9q.3,1.5.675,3.1a19.976,19.976,0,0,0,.875,2.85,3.37,3.37,0,0,1,.275,1.975A3.44,3.44,0,0,1,17.3,18.7l-3.9,3.8a30.358,30.358,0,0,0,6.675,6.775A26.067,26.067,0,0,0,28.4,33.75l2.3-4.65a2.511,2.511,0,0,1,1.15-1.225,3.969,3.969,0,0,1,1.95-.225q1.3.1,2.575.1t2.875-.1a3.333,3.333,0,0,1,2.525.8,4.845,4.845,0,0,1,1.375,2.9l.8,4.5.1.85a4.836,4.836,0,0,1-1.725,3.675A6.669,6.669,0,0,1,37.65,41.95Z" transform="translate(1.142 -6.443) rotate(7)" fill="#fff"/>
</svg>
